@startuml
title Desafio de Projeto DIO: Orientação a Objetos e UML: Diagramação de Classes do iPhone

skinparam classAttributeIconSize 0
/' Para abrir o arquivo, acesse o link:
 https://www.planttext.com/

 Depois disso clique em Alt + Enter para compilar.
 '/

class Musica {
  nome: String
  caminho: String
}


class Contato {
  nome: String
  numero: String
}

class PaginaWeb{
  url: String
  conteudoHtml: String
}

interface "Reprodutor de Música" as MediaPlayer {
  -Musica[] musica
  +selecionarMusica(caminho: String): Musica
  +reproduzir(caminho: String): Boolean
}

interface "Aparelho Telefônico" as AparelhoTelefonico {
  -Contato[] contatos
  -redeMovelDisponivel(): Boolean
  +ligar(numeroTelefone: int): void
  +atender(numeroTelefone: int): void
  +iniciarCorreioVoz(numeroTelefone: int): void
}

interface "Navegador de Internet" as InternetBrowser {
  -PaginaWeb[] paginasWeb
  -conexaoComInternet(): Boolean
  +acessarPaginaWeb(url: String): PaginaWeb
  +adicionarNovaAba(): void
  +atualizarPagina(url: String): PaginaWeb
}

entity "iPod" as iPod {}
entity "MP4 SonyWalkman" as SonyWalkman {}

entity "Moto Q" as MotoQ {}
entity "BlackBerry" as BlackBerry {}
entity "Palm Treo" as PalmTreo {}
entity "Nokia E62" as NokiaE62 {}


entity "Safari Web Browser" as Safari {}

entity "IPhone" as IPhone {}

IPhone --> AparelhoTelefonico
IPhone --> InternetBrowser
IPhone --> MediaPlayer

AparelhoTelefonico <-- MotoQ
AparelhoTelefonico <-- BlackBerry
AparelhoTelefonico <-- PalmTreo
AparelhoTelefonico <-- NokiaE62

AparelhoTelefonico --o Contato

MediaPlayer <-- iPod
MediaPlayer <-- SonyWalkman
MediaPlayer --o Musica

InternetBrowser <-- Safari
InternetBrowser --o PaginaWeb
@enduml

